{
  "accessors": {
    "accessor_index_0": {
      "bufferView": "bufferView_1",
      "byteOffset": 0,
      "byteStride": 0,
      "componentType": 5123,
      "count": 4506,
      "type": "SCALAR",
      "min": [
        0
      ],
      "max": [
        4303
      ]
    },
    "accessor_index_1": {
      "bufferView": "bufferView_1",
      "byteOffset": 9012,
      "byteStride": 0,
      "componentType": 5123,
      "count": 6,
      "type": "SCALAR",
      "min": [
        905
      ],
      "max": [
        908
      ]
    },
    "accessor_index_2": {
      "bufferView": "bufferView_1",
      "byteOffset": 9024,
      "byteStride": 0,
      "componentType": 5123,
      "count": 18534,
      "type": "SCALAR",
      "min": [
        978
      ],
      "max": [
        4234
      ]
    },
    "accessor_position": {
      "bufferView": "bufferView_0",
      "byteOffset": 0,
      "byteStride": 0,
      "componentType": 5126,
      "count": 4304,
      "min": [
        -420.9713134765625,
        -29.03481674194336,
        -249.32180786132812
      ],
      "max": [
        41.11311340332031,
        88.46914672851562,
        212.76260375976562
      ],
      "type": "VEC3"
    },
    "accessor_normal": {
      "bufferView": "bufferView_0",
      "byteOffset": 51648,
      "byteStride": 0,
      "componentType": 5126,
      "count": 4304,
      "type": "VEC3",
      "min": [
        -0.99945467710495,
        -0.9977514743804932,
        -0.9939651489257812
      ],
      "max": [
        0.9997602701187134,
        1,
        0.9982962608337402
      ]
    },
    "accessor_uv": {
      "bufferView": "bufferView_0",
      "byteOffset": 103296,
      "byteStride": 0,
      "componentType": 5126,
      "count": 4304,
      "type": "VEC2",
      "min": [
        -150,
        -249
      ],
      "max": [
        250,
        151
      ]
    }
  },
  "asset": {
    "generator": "OBJ2GLTF",
    "premultipliedAlpha": true,
    "profile": {
      "api": "WebGL",
      "version": "1.0"
    },
    "version": "1.0"
  },
  "buffers": {
    "buffer_0": {
      "type": "arraybuffer",
      "byteLength": 183820,
      "uri": "buffer_0.bin"
    }
  },
  "bufferViews": {
    "bufferView_0": {
      "buffer": "buffer_0",
      "byteLength": 137728,
      "byteOffset": 0,
      "target": 34962
    },
    "bufferView_1": {
      "buffer": "buffer_0",
      "byteLength": 46092,
      "byteOffset": 137728,
      "target": 34963
    }
  },
  "images": {
    "Grass.1024x1024": {
      "uri": "Grass.1024x1024.jpeg"
    },
    "rock.512x512": {
      "uri": "rock.512x512.jpeg"
    },
    "water.1024x512": {
      "uri": "water.1024x512.jpeg"
    }
  },
  "materials": {
    "material_GrassMaterial": {
      "name": "GrassMaterial",
      "extensions": {},
      "values": {
        "ambient": [
          0,
          0,
          0,
          1
        ],
        "diffuse": "texture_Grass.1024x1024",
        "emission": [
          0,
          0,
          0,
          1
        ],
        "specular": [
          0.001176,
          0.001176,
          0.001176,
          1
        ],
        "shininess": 96.078431,
        "transparency": 1
      },
      "technique": "technique0"
    },
    "material_rock_512x512_jpgMaterial": {
      "name": "rock_512x512_jpgMaterial",
      "extensions": {},
      "values": {
        "ambient": [
          0,
          0,
          0,
          1
        ],
        "diffuse": "texture_rock.512x512",
        "emission": [
          0,
          0,
          0,
          1
        ],
        "specular": [
          0.001176,
          0.001176,
          0.001176,
          1
        ],
        "shininess": 96.078431,
        "transparency": 1
      },
      "technique": "technique0"
    },
    "material_water_1024x512_jpgMaterial": {
      "name": "water_1024x512_jpgMaterial",
      "extensions": {},
      "values": {
        "ambient": [
          0,
          0,
          0,
          1
        ],
        "diffuse": "texture_water.1024x512",
        "emission": [
          0,
          0,
          0,
          1
        ],
        "specular": [
          0.001176,
          0.001176,
          0.001176,
          1
        ],
        "shininess": 96.078431,
        "transparency": 1
      },
      "technique": "technique0"
    }
  },
  "meshes": {
    "mesh_landscape": {
      "name": "landscape",
      "primitives": [
        {
          "attributes": {
            "POSITION": "accessor_position",
            "NORMAL": "accessor_normal",
            "TEXCOORD_0": "accessor_uv"
          },
          "indices": "accessor_index_0",
          "material": "material_rock_512x512_jpgMaterial",
          "mode": 4
        },
        {
          "attributes": {
            "POSITION": "accessor_position",
            "NORMAL": "accessor_normal",
            "TEXCOORD_0": "accessor_uv"
          },
          "indices": "accessor_index_1",
          "material": "material_water_1024x512_jpgMaterial",
          "mode": 4
        },
        {
          "attributes": {
            "POSITION": "accessor_position",
            "NORMAL": "accessor_normal",
            "TEXCOORD_0": "accessor_uv"
          },
          "indices": "accessor_index_2",
          "material": "material_GrassMaterial",
          "mode": 4
        }
      ]
    }
  },
  "nodes": {
    "rootNode": {
      "children": [],
      "meshes": [
        "mesh_landscape"
      ],
      "matrix": [
        1,
        0,
        0,
        0,
        0,
        1,
        0,
        0,
        0,
        0,
        1,
        0,
        0,
        0,
        0,
        1
      ]
    }
  },
  "samplers": {
    "sampler_0": {
      "magFilter": 9729,
      "minFilter": 9986,
      "wrapS": 10497,
      "wrapT": 10497
    }
  },
  "scene": "scene_landscape",
  "scenes": {
    "scene_landscape": {
      "nodes": [
        "rootNode"
      ]
    }
  },
  "textures": {
    "texture_Grass.1024x1024": {
      "format": 6407,
      "internalFormat": 6407,
      "sampler": "sampler_0",
      "source": "Grass.1024x1024",
      "target": 3553,
      "type": 5121
    },
    "texture_rock.512x512": {
      "format": 6407,
      "internalFormat": 6407,
      "sampler": "sampler_0",
      "source": "rock.512x512",
      "target": 3553,
      "type": 5121
    },
    "texture_water.1024x512": {
      "format": 6407,
      "internalFormat": 6407,
      "sampler": "sampler_0",
      "source": "water.1024x512",
      "target": 3553,
      "type": 5121
    }
  },
  "extensionsUsed": [],
  "animations": {},
  "cameras": {},
  "techniques": {
    "technique0": {
      "attributes": {
        "a_position": "position",
        "a_normal": "normal",
        "a_texcoord_0": "texcoord_0"
      },
      "parameters": {
        "modelViewMatrix": {
          "semantic": "MODELVIEW",
          "type": 35676
        },
        "projectionMatrix": {
          "semantic": "PROJECTION",
          "type": 35676
        },
        "normalMatrix": {
          "semantic": "MODELVIEWINVERSETRANSPOSE",
          "type": 35675
        },
        "ambient": {
          "type": 35666
        },
        "diffuse": {
          "type": 35678
        },
        "emission": {
          "type": 35666
        },
        "specular": {
          "type": 35666
        },
        "shininess": {
          "type": 5126
        },
        "transparency": {
          "type": 5126
        },
        "position": {
          "semantic": "POSITION",
          "type": 35665
        },
        "normal": {
          "semantic": "NORMAL",
          "type": 35665
        },
        "texcoord_0": {
          "semantic": "TEXCOORD_0",
          "type": 35664
        }
      },
      "program": "program0",
      "states": {
        "enable": [
          2884,
          2929
        ]
      },
      "uniforms": {
        "u_modelViewMatrix": "modelViewMatrix",
        "u_projectionMatrix": "projectionMatrix",
        "u_normalMatrix": "normalMatrix",
        "u_ambient": "ambient",
        "u_diffuse": "diffuse",
        "u_emission": "emission",
        "u_specular": "specular",
        "u_shininess": "shininess",
        "u_transparency": "transparency"
      }
    }
  },
  "programs": {
    "program0": {
      "attributes": [
        "a_position",
        "a_normal",
        "a_texcoord_0"
      ],
      "fragmentShader": "fragmentShader0",
      "vertexShader": "vertexShader0"
    }
  },
  "shaders": {
    "vertexShader0": {
      "type": 35633,
      "uri": "vertexShader0.glsl"
    },
    "fragmentShader0": {
      "type": 35632,
      "uri": "fragmentShader0.glsl"
    }
  },
  "skins": {},
  "extensions": {}
}
