# Blender v2.74 (sub 0) OBJ File: ''
# www.blender.org
mtllib rol.mtl
o Plane9
v -3.600001 0.847100 -16.263901
v -3.600001 1.847100 -16.263901
v -3.600001 2.847100 -16.263901
v -2.700001 0.847100 -16.263901
v -2.700001 1.847100 -16.263901
v -2.700001 2.847100 -16.263901
v -1.800000 0.847100 -16.263901
v -1.800000 1.847100 -16.263901
v -1.800000 2.847100 -16.263901
v -0.900000 0.847100 -16.263901
v -0.900000 1.847100 -16.263901
v -0.900000 2.847100 -16.263901
v 0.000000 1.847100 -16.263901
v 0.000000 2.847100 -16.263901
v 0.900000 0.847100 -16.263901
v 0.900000 1.847100 -16.263901
v 0.900000 2.847100 -16.263901
v 1.800000 0.847100 -16.263901
v 1.800000 1.847100 -16.263901
v 1.800000 2.847100 -16.263901
v 2.700001 0.847100 -16.263901
v 2.700001 1.847100 -16.263901
v 2.700001 2.847100 -16.263901
v 3.600001 0.847100 -16.263901
v 3.600001 1.847100 -16.263901
v 3.600001 2.847100 -16.263901
vt 0.000000 1.000000
vt 0.000000 0.875000
vt 0.500000 0.875000
vt 0.500000 1.000000
vt 1.000000 0.875000
vt 1.000000 1.000000
vt 0.000000 0.750000
vt 0.500000 0.750000
vt 1.000000 0.750000
vt 0.000000 0.625000
vt 0.500000 0.625000
vt 1.000000 0.625000
vt 0.500000 0.500000
vt 1.000000 0.500000
vt 0.500000 0.375000
vt 1.000000 0.375000
vt 0.000000 0.375000
vt 0.000000 0.250000
vt 0.500000 0.250000
vt 1.000000 0.250000
vt 0.000000 0.125000
vt 0.500000 0.125000
vt 1.000000 0.125000
vt 0.000000 0.000000
vt 0.500000 0.000000
vt 1.000000 0.000000
vn 0.000000 0.000000 1.000000
usemtl 4b4e6b
s 1
f 1/1/1 4/2/1 5/3/1 2/4/1
f 2/4/1 5/3/1 6/5/1 3/6/1
f 4/2/1 7/7/1 8/8/1 5/3/1
f 5/3/1 8/8/1 9/9/1 6/5/1
f 7/7/1 10/10/1 11/11/1 8/8/1
f 8/8/1 11/11/1 12/12/1 9/9/1
f 11/11/1 13/13/1 14/14/1 12/12/1
f 13/13/1 16/15/1 17/16/1 14/14/1
f 15/17/1 18/18/1 19/19/1 16/15/1
f 16/15/1 19/19/1 20/20/1 17/16/1
f 18/18/1 21/21/1 22/22/1 19/19/1
f 19/19/1 22/22/1 23/23/1 20/20/1
f 21/21/1 24/24/1 25/25/1 22/22/1
f 22/22/1 25/25/1 26/26/1 23/23/1
o Plane8
v -3.600001 0.847100 -16.263901
v -3.600001 1.847100 -16.263901
v -3.600001 2.847100 -16.263901
v -2.700001 0.847100 -16.263901
v -2.700001 1.847100 -16.263901
v -2.700001 2.847100 -16.263901
v -1.800000 0.847100 -16.263901
v -1.800000 1.847100 -16.263901
v -1.800000 2.847100 -16.263901
v -0.900000 0.847100 -16.263901
v -0.900000 1.847100 -16.263901
v -0.900000 2.847100 -16.263901
v 0.000000 1.847100 -16.263901
v 0.000000 2.847100 -16.263901
v 0.900000 0.847100 -16.263901
v 0.900000 1.847100 -16.263901
v 0.900000 2.847100 -16.263901
v 1.800000 0.847100 -16.263901
v 1.800000 1.847100 -16.263901
v 1.800000 2.847100 -16.263901
v 2.700001 0.847100 -16.263901
v 2.700001 1.847100 -16.263901
v 2.700001 2.847100 -16.263901
v 3.600001 0.847100 -16.263901
v 3.600001 1.847100 -16.263901
v 3.600001 2.847100 -16.263901
vt 0.500000 1.000000
vt 0.500000 0.875000
vt 0.000000 0.875000
vt 0.000000 1.000000
vt 1.000000 1.000000
vt 1.000000 0.875000
vt 0.500000 0.750000
vt 0.000000 0.750000
vt 1.000000 0.750000
vt 0.500000 0.625000
vt 0.000000 0.625000
vt 1.000000 0.625000
vt 1.000000 0.500000
vt 0.500000 0.500000
vt 1.000000 0.375000
vt 0.500000 0.375000
vt 0.500000 0.250000
vt 0.000000 0.250000
vt 0.000000 0.375000
vt 1.000000 0.250000
vt 0.500000 0.125000
vt 0.000000 0.125000
vt 1.000000 0.125000
vt 0.500000 0.000000
vt 0.000000 0.000000
vt 1.000000 0.000000
vn 0.000000 0.000000 -1.000000
usemtl 4b4e6b
s 1
f 28/27/2 31/28/2 30/29/2 27/30/2
f 29/31/2 32/32/2 31/28/2 28/27/2
f 31/28/2 34/33/2 33/34/2 30/29/2
f 32/32/2 35/35/2 34/33/2 31/28/2
f 34/33/2 37/36/2 36/37/2 33/34/2
f 35/35/2 38/38/2 37/36/2 34/33/2
f 38/38/2 40/39/2 39/40/2 37/36/2
f 40/39/2 43/41/2 42/42/2 39/40/2
f 42/42/2 45/43/2 44/44/2 41/45/2
f 43/41/2 46/46/2 45/43/2 42/42/2
f 45/43/2 48/47/2 47/48/2 44/44/2
f 46/46/2 49/49/2 48/47/2 45/43/2
f 48/47/2 51/50/2 50/51/2 47/48/2
f 49/49/2 52/52/2 51/50/2 48/47/2
o Plane5
v 8.000900 0.847100 -10.341700
v 8.000900 1.847100 -10.341700
v 8.000900 2.847100 -10.341700
v 8.000900 0.847100 -9.841700
v 8.000900 1.847100 -9.841700
v 8.000900 2.847100 -9.841700
v 8.000900 0.847100 -9.341700
v 8.000900 1.847100 -9.341700
v 8.000900 2.847100 -9.341700
v 8.000900 0.847100 -8.841700
v 8.000900 1.847100 -8.841700
v 8.000900 2.847100 -8.841700
v 8.000900 1.847100 -8.341700
v 8.000900 2.847100 -8.341700
v 8.000900 0.847100 -7.841700
v 8.000900 1.847100 -7.841700
v 8.000900 2.847100 -7.841700
v 8.000900 0.847100 -7.341700
v 8.000900 1.847100 -7.341700
v 8.000900 2.847100 -7.341700
v 8.000900 0.847100 -6.841700
v 8.000900 1.847100 -6.841700
v 8.000900 2.847100 -6.841700
v 8.000900 0.847100 -6.341700
v 8.000900 1.847100 -6.341700
v 8.000900 2.847100 -6.341700
vt 0.000000 1.000000
vt 0.000000 0.875000
vt 0.500000 0.875000
vt 0.500000 1.000000
vt 1.000000 0.875000
vt 1.000000 1.000000
vt 0.000000 0.750000
vt 0.500000 0.750000
vt 1.000000 0.750000
vt 0.000000 0.625000
vt 0.500000 0.625000
vt 1.000000 0.625000
vt 0.500000 0.500000
vt 1.000000 0.500000
vt 0.500000 0.375000
vt 1.000000 0.375000
vt 0.000000 0.375000
vt 0.000000 0.250000
vt 0.500000 0.250000
vt 1.000000 0.250000
vt 0.000000 0.125000
vt 0.500000 0.125000
vt 1.000000 0.125000
vt 0.000000 0.000000
vt 0.500000 0.000000
vt 1.000000 0.000000
vn -1.000000 0.000000 0.000000
usemtl 4b4e6b
s 1
f 53/53/3 56/54/3 57/55/3 54/56/3
f 54/56/3 57/55/3 58/57/3 55/58/3
f 56/54/3 59/59/3 60/60/3 57/55/3
f 57/55/3 60/60/3 61/61/3 58/57/3
f 59/59/3 62/62/3 63/63/3 60/60/3
f 60/60/3 63/63/3 64/64/3 61/61/3
f 63/63/3 65/65/3 66/66/3 64/64/3
f 65/65/3 68/67/3 69/68/3 66/66/3
f 67/69/3 70/70/3 71/71/3 68/67/3
f 68/67/3 71/71/3 72/72/3 69/68/3
f 70/70/3 73/73/3 74/74/3 71/71/3
f 71/71/3 74/74/3 75/75/3 72/72/3
f 73/73/3 76/76/3 77/77/3 74/74/3
f 74/74/3 77/77/3 78/78/3 75/75/3
o Plane2
v 8.000900 0.847100 -10.341700
v 8.000900 1.847100 -10.341700
v 8.000900 2.847100 -10.341700
v 8.000900 0.847100 -9.841700
v 8.000900 1.847100 -9.841700
v 8.000900 2.847100 -9.841700
v 8.000900 0.847100 -9.341700
v 8.000900 1.847100 -9.341700
v 8.000900 2.847100 -9.341700
v 8.000900 0.847100 -8.841700
v 8.000900 1.847100 -8.841700
v 8.000900 2.847100 -8.841700
v 8.000900 1.847100 -8.341700
v 8.000900 2.847100 -8.341700
v 8.000900 0.847100 -7.841700
v 8.000900 1.847100 -7.841700
v 8.000900 2.847100 -7.841700
v 8.000900 0.847100 -7.341700
v 8.000900 1.847100 -7.341700
v 8.000900 2.847100 -7.341700
v 8.000900 0.847100 -6.841700
v 8.000900 1.847100 -6.841700
v 8.000900 2.847100 -6.841700
v 8.000900 0.847100 -6.341700
v 8.000900 1.847100 -6.341700
v 8.000900 2.847100 -6.341700
vt 0.500000 1.000000
vt 0.500000 0.875000
vt 0.000000 0.875000
vt 0.000000 1.000000
vt 1.000000 1.000000
vt 1.000000 0.875000
vt 0.500000 0.750000
vt 0.000000 0.750000
vt 1.000000 0.750000
vt 0.500000 0.625000
vt 0.000000 0.625000
vt 1.000000 0.625000
vt 1.000000 0.500000
vt 0.500000 0.500000
vt 1.000000 0.375000
vt 0.500000 0.375000
vt 0.500000 0.250000
vt 0.000000 0.250000
vt 0.000000 0.375000
vt 1.000000 0.250000
vt 0.500000 0.125000
vt 0.000000 0.125000
vt 1.000000 0.125000
vt 0.500000 0.000000
vt 0.000000 0.000000
vt 1.000000 0.000000
vn 1.000000 0.000000 0.000000
usemtl 4b4e6b
s 1
f 80/79/4 83/80/4 82/81/4 79/82/4
f 81/83/4 84/84/4 83/80/4 80/79/4
f 83/80/4 86/85/4 85/86/4 82/81/4
f 84/84/4 87/87/4 86/85/4 83/80/4
f 86/85/4 89/88/4 88/89/4 85/86/4
f 87/87/4 90/90/4 89/88/4 86/85/4
f 90/90/4 92/91/4 91/92/4 89/88/4
f 92/91/4 95/93/4 94/94/4 91/92/4
f 94/94/4 97/95/4 96/96/4 93/97/4
f 95/93/4 98/98/4 97/95/4 94/94/4
f 97/95/4 100/99/4 99/100/4 96/96/4
f 98/98/4 101/101/4 100/99/4 97/95/4
f 100/99/4 103/102/4 102/103/4 99/100/4
f 101/101/4 104/104/4 103/102/4 100/99/4
o Plane7
v -2.000000 0.847100 -0.261900
v -2.000000 1.847100 -0.261900
v -2.000000 2.847100 -0.261900
v -1.500000 0.847100 -0.261900
v -1.500000 1.847100 -0.261900
v -1.500000 2.847100 -0.261900
v -1.000000 0.847100 -0.261900
v -1.000000 1.847100 -0.261900
v -1.000000 2.847100 -0.261900
v -0.500000 0.847100 -0.261900
v -0.500000 1.847100 -0.261900
v -0.500000 2.847100 -0.261900
v 0.000000 1.847100 -0.261900
v 0.000000 2.847100 -0.261900
v 0.500000 0.847100 -0.261900
v 0.500000 1.847100 -0.261900
v 0.500000 2.847100 -0.261900
v 1.000000 0.847100 -0.261900
v 1.000000 1.847100 -0.261900
v 1.000000 2.847100 -0.261900
v 1.500000 0.847100 -0.261900
v 1.500000 1.847100 -0.261900
v 1.500000 2.847100 -0.261900
v 2.000000 0.847100 -0.261900
v 2.000000 1.847100 -0.261900
v 2.000000 2.847100 -0.261900
vt 0.000000 1.000000
vt 0.000000 0.875000
vt 0.500000 0.875000
vt 0.500000 1.000000
vt 1.000000 0.875000
vt 1.000000 1.000000
vt 0.000000 0.750000
vt 0.500000 0.750000
vt 1.000000 0.750000
vt 0.000000 0.625000
vt 0.500000 0.625000
vt 1.000000 0.625000
vt 0.500000 0.500000
vt 1.000000 0.500000
vt 0.500000 0.375000
vt 1.000000 0.375000
vt 0.000000 0.375000
vt 0.000000 0.250000
vt 0.500000 0.250000
vt 1.000000 0.250000
vt 0.000000 0.125000
vt 0.500000 0.125000
vt 1.000000 0.125000
vt 0.000000 0.000000
vt 0.500000 0.000000
vt 1.000000 0.000000
vn 0.000000 -0.000000 1.000000
usemtl 4b4e6b
s 1
f 105/105/5 108/106/5 109/107/5 106/108/5
f 106/108/5 109/107/5 110/109/5 107/110/5
f 108/106/5 111/111/5 112/112/5 109/107/5
f 109/107/5 112/112/5 113/113/5 110/109/5
f 111/111/5 114/114/5 115/115/5 112/112/5
f 112/112/5 115/115/5 116/116/5 113/113/5
f 115/115/5 117/117/5 118/118/5 116/116/5
f 117/117/5 120/119/5 121/120/5 118/118/5
f 119/121/5 122/122/5 123/123/5 120/119/5
f 120/119/5 123/123/5 124/124/5 121/120/5
f 122/122/5 125/125/5 126/126/5 123/123/5
f 123/123/5 126/126/5 127/127/5 124/124/5
f 125/125/5 128/128/5 129/129/5 126/126/5
f 126/126/5 129/129/5 130/130/5 127/127/5
o Plane6
v -2.000000 0.847100 -0.261900
v -2.000000 1.847100 -0.261900
v -2.000000 2.847100 -0.261900
v -1.500000 0.847100 -0.261900
v -1.500000 1.847100 -0.261900
v -1.500000 2.847100 -0.261900
v -1.000000 0.847100 -0.261900
v -1.000000 1.847100 -0.261900
v -1.000000 2.847100 -0.261900
v -0.500000 0.847100 -0.261900
v -0.500000 1.847100 -0.261900
v -0.500000 2.847100 -0.261900
v 0.000000 1.847100 -0.261900
v 0.000000 2.847100 -0.261900
v 0.500000 0.847100 -0.261900
v 0.500000 1.847100 -0.261900
v 0.500000 2.847100 -0.261900
v 1.000000 0.847100 -0.261900
v 1.000000 1.847100 -0.261900
v 1.000000 2.847100 -0.261900
v 1.500000 0.847100 -0.261900
v 1.500000 1.847100 -0.261900
v 1.500000 2.847100 -0.261900
v 2.000000 0.847100 -0.261900
v 2.000000 1.847100 -0.261900
v 2.000000 2.847100 -0.261900
vt 0.500000 1.000000
vt 0.500000 0.875000
vt 0.000000 0.875000
vt 0.000000 1.000000
vt 1.000000 1.000000
vt 1.000000 0.875000
vt 0.500000 0.750000
vt 0.000000 0.750000
vt 1.000000 0.750000
vt 0.500000 0.625000
vt 0.000000 0.625000
vt 1.000000 0.625000
vt 1.000000 0.500000
vt 0.500000 0.500000
vt 1.000000 0.375000
vt 0.500000 0.375000
vt 0.500000 0.250000
vt 0.000000 0.250000
vt 0.000000 0.375000
vt 1.000000 0.250000
vt 0.500000 0.125000
vt 0.000000 0.125000
vt 1.000000 0.125000
vt 0.500000 0.000000
vt 0.000000 0.000000
vt 1.000000 0.000000
vn -0.000000 0.000000 -1.000000
usemtl 4b4e6b
s 1
f 132/131/6 135/132/6 134/133/6 131/134/6
f 133/135/6 136/136/6 135/132/6 132/131/6
f 135/132/6 138/137/6 137/138/6 134/133/6
f 136/136/6 139/139/6 138/137/6 135/132/6
f 138/137/6 141/140/6 140/141/6 137/138/6
f 139/139/6 142/142/6 141/140/6 138/137/6
f 142/142/6 144/143/6 143/144/6 141/140/6
f 144/143/6 147/145/6 146/146/6 143/144/6
f 146/146/6 149/147/6 148/148/6 145/149/6
f 147/145/6 150/150/6 149/147/6 146/146/6
f 149/147/6 152/151/6 151/152/6 148/148/6
f 150/150/6 153/153/6 152/151/6 149/147/6
f 152/151/6 155/154/6 154/155/6 151/152/6
f 153/153/6 156/156/6 155/154/6 152/151/6
o Plane
v -8.000900 0.847100 -10.341700
v -8.000900 1.847100 -10.341700
v -8.000900 2.847100 -10.341700
v -8.000900 0.847100 -9.841700
v -8.000900 1.847100 -9.841700
v -8.000900 2.847100 -9.841700
v -8.000900 0.847100 -9.341700
v -8.000900 1.847100 -9.341700
v -8.000900 2.847100 -9.341700
v -8.000900 0.847100 -8.841700
v -8.000900 1.847100 -8.841700
v -8.000900 2.847100 -8.841700
v -8.000900 1.847100 -8.341700
v -8.000900 2.847100 -8.341700
v -8.000900 0.847100 -7.841700
v -8.000900 1.847100 -7.841700
v -8.000900 2.847100 -7.841700
v -8.000900 0.847100 -7.341700
v -8.000900 1.847100 -7.341700
v -8.000900 2.847100 -7.341700
v -8.000900 0.847100 -6.841700
v -8.000900 1.847100 -6.841700
v -8.000900 2.847100 -6.841700
v -8.000900 0.847100 -6.341700
v -8.000900 1.847100 -6.341700
v -8.000900 2.847100 -6.341700
vt 0.000000 1.000000
vt 0.000000 0.875000
vt 0.500000 0.875000
vt 0.500000 1.000000
vt 1.000000 0.875000
vt 1.000000 1.000000
vt 0.000000 0.750000
vt 0.500000 0.750000
vt 1.000000 0.750000
vt 0.000000 0.625000
vt 0.500000 0.625000
vt 1.000000 0.625000
vt 0.500000 0.500000
vt 1.000000 0.500000
vt 0.500000 0.375000
vt 1.000000 0.375000
vt 0.000000 0.375000
vt 0.000000 0.250000
vt 0.500000 0.250000
vt 1.000000 0.250000
vt 0.000000 0.125000
vt 0.500000 0.125000
vt 1.000000 0.125000
vt 0.000000 0.000000
vt 0.500000 0.000000
vt 1.000000 0.000000
vn -1.000000 0.000000 0.000000
usemtl 4b4e6b
s 1
f 157/157/7 160/158/7 161/159/7 158/160/7
f 158/160/7 161/159/7 162/161/7 159/162/7
f 160/158/7 163/163/7 164/164/7 161/159/7
f 161/159/7 164/164/7 165/165/7 162/161/7
f 163/163/7 166/166/7 167/167/7 164/164/7
f 164/164/7 167/167/7 168/168/7 165/165/7
f 167/167/7 169/169/7 170/170/7 168/168/7
f 169/169/7 172/171/7 173/172/7 170/170/7
f 171/173/7 174/174/7 175/175/7 172/171/7
f 172/171/7 175/175/7 176/176/7 173/172/7
f 174/174/7 177/177/7 178/178/7 175/175/7
f 175/175/7 178/178/7 179/179/7 176/176/7
f 177/177/7 180/180/7 181/181/7 178/178/7
f 178/178/7 181/181/7 182/182/7 179/179/7
o Plane1
v -8.000900 0.847100 -10.341700
v -8.000900 1.847100 -10.341700
v -8.000900 2.847100 -10.341700
v -8.000900 0.847100 -9.841700
v -8.000900 1.847100 -9.841700
v -8.000900 2.847100 -9.841700
v -8.000900 0.847100 -9.341700
v -8.000900 1.847100 -9.341700
v -8.000900 2.847100 -9.341700
v -8.000900 0.847100 -8.841700
v -8.000900 1.847100 -8.841700
v -8.000900 2.847100 -8.841700
v -8.000900 1.847100 -8.341700
v -8.000900 2.847100 -8.341700
v -8.000900 0.847100 -7.841700
v -8.000900 1.847100 -7.841700
v -8.000900 2.847100 -7.841700
v -8.000900 0.847100 -7.341700
v -8.000900 1.847100 -7.341700
v -8.000900 2.847100 -7.341700
v -8.000900 0.847100 -6.841700
v -8.000900 1.847100 -6.841700
v -8.000900 2.847100 -6.841700
v -8.000900 0.847100 -6.341700
v -8.000900 1.847100 -6.341700
v -8.000900 2.847100 -6.341700
vt 0.500000 1.000000
vt 0.500000 0.875000
vt 0.000000 0.875000
vt 0.000000 1.000000
vt 1.000000 1.000000
vt 1.000000 0.875000
vt 0.500000 0.750000
vt 0.000000 0.750000
vt 1.000000 0.750000
vt 0.500000 0.625000
vt 0.000000 0.625000
vt 1.000000 0.625000
vt 1.000000 0.500000
vt 0.500000 0.500000
vt 1.000000 0.375000
vt 0.500000 0.375000
vt 0.500000 0.250000
vt 0.000000 0.250000
vt 0.000000 0.375000
vt 1.000000 0.250000
vt 0.500000 0.125000
vt 0.000000 0.125000
vt 1.000000 0.125000
vt 0.500000 0.000000
vt 0.000000 0.000000
vt 1.000000 0.000000
vn 1.000000 0.000000 0.000000
usemtl 4b4e6b
s 1
f 184/183/8 187/184/8 186/185/8 183/186/8
f 185/187/8 188/188/8 187/184/8 184/183/8
f 187/184/8 190/189/8 189/190/8 186/185/8
f 188/188/8 191/191/8 190/189/8 187/184/8
f 190/189/8 193/192/8 192/193/8 189/190/8
f 191/191/8 194/194/8 193/192/8 190/189/8
f 194/194/8 196/195/8 195/196/8 193/192/8
f 196/195/8 199/197/8 198/198/8 195/196/8
f 198/198/8 201/199/8 200/200/8 197/201/8
f 199/197/8 202/202/8 201/199/8 198/198/8
f 201/199/8 204/203/8 203/204/8 200/200/8
f 202/202/8 205/205/8 204/203/8 201/199/8
f 204/203/8 207/206/8 206/207/8 203/204/8
f 205/205/8 208/208/8 207/206/8 204/203/8
