{
  "accessors": {
    "accessor_index_0": {
      "bufferView": "bufferView_1",
      "byteOffset": 0,
      "byteStride": 0,
      "componentType": 5123,
      "count": 14706,
      "type": "SCALAR",
      "min": [
        0
      ],
      "max": [
        8079
      ]
    },
    "accessor_index_1": {
      "bufferView": "bufferView_1",
      "byteOffset": 29412,
      "byteStride": 0,
      "componentType": 5123,
      "count": 18,
      "type": "SCALAR",
      "min": [
        244
      ],
      "max": [
        8083
      ]
    },
    "accessor_index_2": {
      "bufferView": "bufferView_1",
      "byteOffset": 29448,
      "byteStride": 0,
      "componentType": 5123,
      "count": 12,
      "type": "SCALAR",
      "min": [
        710
      ],
      "max": [
        7935
      ]
    },
    "accessor_index_3": {
      "bufferView": "bufferView_1",
      "byteOffset": 29472,
      "byteStride": 0,
      "componentType": 5123,
      "count": 6,
      "type": "SCALAR",
      "min": [
        6195
      ],
      "max": [
        6198
      ]
    },
    "accessor_index_4": {
      "bufferView": "bufferView_1",
      "byteOffset": 29484,
      "byteStride": 0,
      "componentType": 5123,
      "count": 9600,
      "type": "SCALAR",
      "min": [
        8084
      ],
      "max": [
        9764
      ]
    },
    "accessor_position": {
      "bufferView": "bufferView_0",
      "byteOffset": 0,
      "byteStride": 0,
      "componentType": 5126,
      "count": 9765,
      "min": [
        -47.69559860229492,
        -5.35298490524292,
        -47.69559860229492
      ],
      "max": [
        47.69559860229492,
        23.95526885986328,
        47.69559860229492
      ],
      "type": "VEC3"
    },
    "accessor_normal": {
      "bufferView": "bufferView_0",
      "byteOffset": 117180,
      "byteStride": 0,
      "componentType": 5126,
      "count": 9765,
      "type": "VEC3",
      "min": [
        -1,
        -1,
        -1
      ],
      "max": [
        1,
        1,
        1
      ]
    },
    "accessor_uv": {
      "bufferView": "bufferView_0",
      "byteOffset": 234360,
      "byteStride": 0,
      "componentType": 5126,
      "count": 9765,
      "type": "VEC2",
      "min": [
        -30,
        -49
      ],
      "max": [
        50,
        31
      ]
    }
  },
  "asset": {
    "generator": "OBJ2GLTF",
    "premultipliedAlpha": true,
    "profile": {
      "api": "WebGL",
      "version": "1.0"
    },
    "version": "1.0"
  },
  "buffers": {
    "buffer_0": {
      "type": "arraybuffer",
      "byteLength": 361164,
      "uri": "buffer_0.bin"
    }
  },
  "bufferViews": {
    "bufferView_0": {
      "buffer": "buffer_0",
      "byteLength": 312480,
      "byteOffset": 0,
      "target": 34962
    },
    "bufferView_1": {
      "buffer": "buffer_0",
      "byteLength": 48684,
      "byteOffset": 312480,
      "target": 34963
    }
  },
  "images": {
    "Grass_Dark_Green.512x512": {
      "uri": "Grass_Dark_Green.512x512.jpeg"
    },
    "brick12.512x512": {
      "uri": "brick12.512x512.jpeg"
    },
    "floor1.1024x1024": {
      "uri": "floor1.1024x1024.jpeg"
    },
    "stone.512x512": {
      "uri": "stone.512x512.jpeg"
    },
    "water.1024x512": {
      "uri": "water.1024x512.jpeg"
    }
  },
  "materials": {
    "material_Grass_Dark_Green_512x512_jpegMaterial": {
      "name": "Grass_Dark_Green_512x512_jpegMaterial",
      "extensions": {},
      "values": {
        "ambient": [
          0,
          0,
          0,
          1
        ],
        "diffuse": "texture_Grass_Dark_Green.512x512",
        "emission": [
          0,
          0,
          0,
          1
        ],
        "specular": [
          0.001176,
          0.001176,
          0.001176,
          1
        ],
        "shininess": 96.078431,
        "transparency": 1
      },
      "technique": "technique0"
    },
    "material_brick12Material": {
      "name": "brick12Material",
      "extensions": {},
      "values": {
        "ambient": [
          0,
          0,
          0,
          1
        ],
        "diffuse": "texture_brick12.512x512",
        "emission": [
          0,
          0,
          0,
          1
        ],
        "specular": [
          0.001176,
          0.001176,
          0.001176,
          1
        ],
        "shininess": 96.078431,
        "transparency": 1
      },
      "technique": "technique0"
    },
    "material_floor1Material": {
      "name": "floor1Material",
      "extensions": {},
      "values": {
        "ambient": [
          0,
          0,
          0,
          1
        ],
        "diffuse": "texture_floor1.1024x1024",
        "emission": [
          0,
          0,
          0,
          1
        ],
        "specular": [
          0.001176,
          0.001176,
          0.001176,
          1
        ],
        "shininess": 96.078431,
        "transparency": 1
      },
      "technique": "technique0"
    },
    "material_stone_512x512_jpegMaterial": {
      "name": "stone_512x512_jpegMaterial",
      "extensions": {},
      "values": {
        "ambient": [
          0,
          0,
          0,
          1
        ],
        "diffuse": "texture_stone.512x512",
        "emission": [
          0,
          0,
          0,
          1
        ],
        "specular": [
          0.001176,
          0.001176,
          0.001176,
          1
        ],
        "shininess": 96.078431,
        "transparency": 1
      },
      "technique": "technique0"
    },
    "material_water_1024x512_jpgMaterial": {
      "name": "water_1024x512_jpgMaterial",
      "extensions": {},
      "values": {
        "ambient": [
          0,
          0,
          0,
          1
        ],
        "diffuse": "texture_water.1024x512",
        "emission": [
          0,
          0,
          0,
          1
        ],
        "specular": [
          0.001176,
          0.001176,
          0.001176,
          1
        ],
        "shininess": 96.078431,
        "transparency": 1
      },
      "technique": "technique0"
    }
  },
  "meshes": {
    "mesh_rol": {
      "name": "rol",
      "primitives": [
        {
          "attributes": {
            "POSITION": "accessor_position",
            "NORMAL": "accessor_normal",
            "TEXCOORD_0": "accessor_uv"
          },
          "indices": "accessor_index_0",
          "material": "material_stone_512x512_jpegMaterial",
          "mode": 4
        },
        {
          "attributes": {
            "POSITION": "accessor_position",
            "NORMAL": "accessor_normal",
            "TEXCOORD_0": "accessor_uv"
          },
          "indices": "accessor_index_1",
          "material": "material_water_1024x512_jpgMaterial",
          "mode": 4
        },
        {
          "attributes": {
            "POSITION": "accessor_position",
            "NORMAL": "accessor_normal",
            "TEXCOORD_0": "accessor_uv"
          },
          "indices": "accessor_index_2",
          "material": "material_brick12Material",
          "mode": 4
        },
        {
          "attributes": {
            "POSITION": "accessor_position",
            "NORMAL": "accessor_normal",
            "TEXCOORD_0": "accessor_uv"
          },
          "indices": "accessor_index_3",
          "material": "material_floor1Material",
          "mode": 4
        },
        {
          "attributes": {
            "POSITION": "accessor_position",
            "NORMAL": "accessor_normal",
            "TEXCOORD_0": "accessor_uv"
          },
          "indices": "accessor_index_4",
          "material": "material_Grass_Dark_Green_512x512_jpegMaterial",
          "mode": 4
        }
      ]
    }
  },
  "nodes": {
    "rootNode": {
      "children": [],
      "meshes": [
        "mesh_rol"
      ],
      "matrix": [
        1,
        0,
        0,
        0,
        0,
        1,
        0,
        0,
        0,
        0,
        1,
        0,
        0,
        0,
        0,
        1
      ]
    }
  },
  "samplers": {
    "sampler_0": {
      "magFilter": 9729,
      "minFilter": 9986,
      "wrapS": 10497,
      "wrapT": 10497
    }
  },
  "scene": "scene_rol",
  "scenes": {
    "scene_rol": {
      "nodes": [
        "rootNode"
      ]
    }
  },
  "textures": {
    "texture_Grass_Dark_Green.512x512": {
      "format": 6407,
      "internalFormat": 6407,
      "sampler": "sampler_0",
      "source": "Grass_Dark_Green.512x512",
      "target": 3553,
      "type": 5121
    },
    "texture_brick12.512x512": {
      "format": 6407,
      "internalFormat": 6407,
      "sampler": "sampler_0",
      "source": "brick12.512x512",
      "target": 3553,
      "type": 5121
    },
    "texture_floor1.1024x1024": {
      "format": 6407,
      "internalFormat": 6407,
      "sampler": "sampler_0",
      "source": "floor1.1024x1024",
      "target": 3553,
      "type": 5121
    },
    "texture_stone.512x512": {
      "format": 6407,
      "internalFormat": 6407,
      "sampler": "sampler_0",
      "source": "stone.512x512",
      "target": 3553,
      "type": 5121
    },
    "texture_water.1024x512": {
      "format": 6407,
      "internalFormat": 6407,
      "sampler": "sampler_0",
      "source": "water.1024x512",
      "target": 3553,
      "type": 5121
    }
  },
  "extensionsUsed": [],
  "animations": {},
  "cameras": {},
  "techniques": {
    "technique0": {
      "attributes": {
        "a_position": "position",
        "a_normal": "normal",
        "a_texcoord_0": "texcoord_0"
      },
      "parameters": {
        "modelViewMatrix": {
          "semantic": "MODELVIEW",
          "type": 35676
        },
        "projectionMatrix": {
          "semantic": "PROJECTION",
          "type": 35676
        },
        "normalMatrix": {
          "semantic": "MODELVIEWINVERSETRANSPOSE",
          "type": 35675
        },
        "ambient": {
          "type": 35666
        },
        "diffuse": {
          "type": 35678
        },
        "emission": {
          "type": 35666
        },
        "specular": {
          "type": 35666
        },
        "shininess": {
          "type": 5126
        },
        "transparency": {
          "type": 5126
        },
        "position": {
          "semantic": "POSITION",
          "type": 35665
        },
        "normal": {
          "semantic": "NORMAL",
          "type": 35665
        },
        "texcoord_0": {
          "semantic": "TEXCOORD_0",
          "type": 35664
        }
      },
      "program": "program0",
      "states": {
        "enable": [
          2884,
          2929
        ]
      },
      "uniforms": {
        "u_modelViewMatrix": "modelViewMatrix",
        "u_projectionMatrix": "projectionMatrix",
        "u_normalMatrix": "normalMatrix",
        "u_ambient": "ambient",
        "u_diffuse": "diffuse",
        "u_emission": "emission",
        "u_specular": "specular",
        "u_shininess": "shininess",
        "u_transparency": "transparency"
      }
    }
  },
  "programs": {
    "program0": {
      "attributes": [
        "a_position",
        "a_normal",
        "a_texcoord_0"
      ],
      "fragmentShader": "fragmentShader0",
      "vertexShader": "vertexShader0"
    }
  },
  "shaders": {
    "vertexShader0": {
      "type": 35633,
      "uri": "vertexShader0.glsl"
    },
    "fragmentShader0": {
      "type": 35632,
      "uri": "fragmentShader0.glsl"
    }
  },
  "skins": {},
  "extensions": {}
}
